HIERARCHY
ROOT Hips
{
     OFFSET 1.88212 96.90440 -13.34250
     CHANNELS 6 Xposition Yposition Zposition Zrotation Xrotation Yrotation
     JOINT Spine
     {
          OFFSET 0.00000 11.89050 0.00000
          CHANNELS 3 Zrotation Xrotation Yrotation
          JOINT Spine1
          {
               OFFSET -0.00000 25.65740 0.12766
               CHANNELS 3 Zrotation Xrotation Yrotation
               JOINT HEad
               {
                    OFFSET 0.00000 8.73416 0.01134
                    CHANNELS 3 Zrotation Xrotation Yrotation
                    End Site
                    {
                         OFFSET -0.29000 12.77420 2.51395
                    }
               }
               JOINT LeftShoulder1
               {
                    OFFSET 8.99000 -0.36225 -0.22000
                    CHANNELS 3 Zrotation Xrotation Yrotation
                    JOINT LeftArm
                    {
                         OFFSET 10.28270 -0.00338 0.32212
                         CHANNELS 3 Zrotation Xrotation Yrotation
                         JOINT LeftForeArm
                         {
                              OFFSET 32.76690 0.09914 -1.42434
                              CHANNELS 3 Zrotation Xrotation Yrotation
                              JOINT LeftHand
                              {
                                   OFFSET 27.56430 0.08536 1.02216
                                   CHANNELS 3 Zrotation Xrotation Yrotation
                                   End Site
                                   {
                                        OFFSET 16.74430 -0.60000 1.50291
                                   }
                              }
                         }
                    }
               }
               JOINT RightShoulder
               {
                    OFFSET -8.99000 -0.36225 -0.22000
                    CHANNELS 3 Zrotation Xrotation Yrotation
                    JOINT RightArm
                    {
                         OFFSET -10.28270 -0.00338 0.32212
                         CHANNELS 3 Zrotation Xrotation Yrotation
                         JOINT RightForeArm
                         {
                              OFFSET -32.89710 0.09914 -1.42434
                              CHANNELS 3 Zrotation Xrotation Yrotation
                              JOINT RightHand
                              {
                                   OFFSET -27.49210 0.08536 1.02216
                                   CHANNELS 3 Zrotation Xrotation Yrotation
                                   End Site
                                   {
                                        OFFSET -16.63120 -0.60000 1.50291
                                   }
                              }
                         }
                    }
               }
          }
     }
     JOINT LeftUpLeg
     {
          OFFSET 8.94580 -8.66707 0.10165
          CHANNELS 3 Zrotation Xrotation Yrotation
          JOINT LeftLeg
          {
               OFFSET 0.00000 -44.42270 1.37270
               CHANNELS 3 Zrotation Xrotation Yrotation
               JOINT LeftFoot
               {
                    OFFSET -0.25355 -42.09240 -1.46059
                    CHANNELS 3 Zrotation Xrotation Yrotation
                    JOINT LeftToes
                    {
                         OFFSET -0.04000 -4.41509 8.49910
                         CHANNELS 3 Zrotation Xrotation Yrotation
                         End Site
                         {
                              OFFSET 0.08000 -0.04745 9.77979
                         }
                    }
               }
          }
     }
     JOINT RightUpLeg
     {
          OFFSET -8.94580 -8.66707 0.10165
          CHANNELS 3 Zrotation Xrotation Yrotation
          JOINT RightLeg
          {
               OFFSET 0.00000 -44.42270 1.37270
               CHANNELS 3 Zrotation Xrotation Yrotation
               JOINT RightFoot
               {
                    OFFSET 0.25355 -42.09240 -1.46059
                    CHANNELS 3 Zrotation Xrotation Yrotation
                    JOINT RightToes
                    {
                         OFFSET 0.04000 -4.41509 8.49910
                         CHANNELS 3 Zrotation Xrotation Yrotation
                         End Site
                         {
                              OFFSET -0.08000 -0.13745 9.77979
                         }
                    }
               }
          }
     }
}
MOTION
Frames: 6
Frame Time: 0.01667
49.12250 96.15223 13.57562 1.16096 24.29805 139.80591 -27.59385 25.38909 8.77645 0.00538 0.00070 -0.00488 -9.80351 19.14986 12.85028 7.19081 8.35215 -0.88775 -81.96204 -64.73972 -61.51650 -33.37277 34.03894 -79.71732 16.23221 10.94235 -9.38616 12.09784 9.19872 -3.35846 70.08417 13.76631 72.25208 -1.17753 22.87543 87.67896 12.40558 8.71311 7.93767 4.81251 -31.45683 35.81882 -297.41241 70.47359 322.71021 -13.44838 -0.08972 0.02630 -6.14411 30.41323 -39.52845 -25.27559 8.15400 10.41427 30.73001 4.61374 -54.27362 5.25244 0.02923 0.02551 -29.11314 -30.79497 21.66289 
49.18993 95.67380 12.99378 1.47242 21.39058 141.43088 -26.31877 24.60333 7.84800 0.01945 0.00463 -0.01422 -8.32472 19.42998 12.52453 8.09161 8.28989 -1.68961 -104.22976 -68.33925 -80.71658 -37.48839 45.80888 -77.65308 19.24529 12.41162 -6.49072 14.25211 9.09046 -3.77730 70.14458 11.98620 71.57444 0.08755 22.10075 87.16116 13.75267 9.88453 11.73982 -1.43574 -29.13092 32.75322 -309.19577 59.42749 334.30621 -15.25224 -0.05913 0.10345 -4.37402 20.46610 -39.45731 -23.19103 8.21291 9.89702 30.88152 1.98779 -54.59129 -0.15777 0.03004 0.01696 -24.59326 -29.28944 20.44627 
49.16380 95.27847 12.35514 1.84791 18.77611 142.77727 -24.96415 23.92034 6.92658 0.01980 0.00358 -0.01542 -7.28769 19.75648 12.32662 8.71786 8.20605 -2.32573 -122.42735 -68.71771 -96.97173 -41.35159 53.43304 -74.96427 19.04953 12.31206 -5.87156 15.97805 8.91044 -4.19545 70.56618 10.64592 70.99071 1.10996 21.80012 87.33739 14.12618 10.00313 11.11811 -6.23500 -25.83632 29.32417 -317.28342 48.65880 342.50214 -15.19777 0.03300 0.04427 -1.70045 11.66275 -39.72150 -21.48069 8.17017 9.65708 31.21679 -0.37347 -54.77224 -5.48683 0.03313 0.01385 -20.07095 -28.14473 19.33148 
49.05114 95.00452 11.67884 2.24527 16.47661 143.86142 -23.58486 23.34305 6.04282 0.01878 0.00282 -0.01548 -6.65878 20.12010 12.25030 9.04524 8.10361 -2.83920 -134.74025 -67.90137 -108.06815 -44.46862 58.38661 -72.58720 19.96695 12.71147 -4.91489 17.31494 8.68897 -4.56489 71.16855 9.55453 70.50713 1.96059 21.80861 87.97077 15.01646 10.91299 12.61553 -9.43544 -21.87239 25.74632 -321.62164 39.73748 348.09164 -16.12695 0.01477 0.06674 1.12045 1.86242 -41.72373 -20.18347 8.07754 9.67099 31.70231 -2.51308 -54.83208 -10.74673 0.03452 0.01436 -15.67377 -27.17622 18.15677 
48.88234 94.77072 10.97581 2.65017 14.49902 144.68723 -22.21568 22.87504 5.22900 0.01717 0.00273 -0.01491 -6.38475 20.51299 12.27969 9.09909 7.99921 -3.25731 -142.57928 -66.92850 -115.15767 -46.49335 61.68850 -71.10196 19.26808 12.29878 -4.96100 18.32968 8.45137 -4.85227 71.82899 8.58500 70.12608 2.68418 21.98509 88.79210 15.35302 11.04284 11.66944 -11.10630 -17.58381 22.02107 -324.85492 32.56173 353.44211 -17.26498 0.01285 0.05893 0.68038 7.88342 -38.91962 -19.28589 7.99486 9.91538 32.29568 -4.45748 -54.78310 -15.93188 0.03376 0.01654 -11.29598 -26.44033 17.08674 
48.68959 94.57487 10.24568 3.06612 12.83732 145.25795 -20.87474 22.51513 4.51076 0.01522 0.00268 -0.01423 -6.40824 20.92972 12.39796 8.91568 7.91362 -3.57930 -147.56165 -66.16045 -119.69884 -47.34186 63.93035 -70.67072 19.48584 12.23857 -4.61728 19.09255 8.22534 -5.08556 72.47269 7.71548 69.83081 3.27713 22.27545 89.72116 15.97996 11.67253 12.15292 -11.40962 -13.26935 18.05183 -327.92993 26.93423 359.21149 -18.41173 0.01710 0.04867 4.50800 -10.35248 -43.65664 -18.73302 7.97644 10.36292 32.96125 -6.21296 -54.63439 -21.03110 0.03129 0.01822 -6.96479 -25.88176 16.07461 
